<?xml version="1.0" standalone="no"?>
<svg xmlns:xlink="http://www.w3.org/1999/xlink" id="wave" style="transform:rotate(180deg); transition: 0.3s" viewBox="0 0 1440 490" version="1.1" xmlns="http://www.w3.org/2000/svg"><defs><linearGradient id="sw-gradient-0" x1="0" x2="0" y1="1" y2="0"><stop stop-color="rgba(34.642, 206.481, 255, 1)" offset="0%"/><stop stop-color="rgba(30, 144, 255, 1)" offset="100%"/></linearGradient></defs><path style="transform:translate(0, 0px); opacity:1" fill="url(#sw-gradient-0)" d="M0,343L40,343C80,343,160,343,240,285.8C320,229,400,114,480,57.2C560,0,640,0,720,32.7C800,65,880,131,960,196C1040,261,1120,327,1200,310.3C1280,294,1360,196,1440,196C1520,196,1600,294,1680,334.8C1760,376,1840,359,1920,326.7C2000,294,2080,245,2160,253.2C2240,261,2320,327,2400,318.5C2480,310,2560,229,2640,187.8C2720,147,2800,147,2880,138.8C2960,131,3040,114,3120,106.2C3200,98,3280,98,3360,89.8C3440,82,3520,65,3600,81.7C3680,98,3760,147,3840,212.3C3920,278,4000,359,4080,359.3C4160,359,4240,278,4320,236.8C4400,196,4480,196,4560,163.3C4640,131,4720,65,4800,32.7C4880,0,4960,0,5040,32.7C5120,65,5200,131,5280,130.7C5360,131,5440,65,5520,106.2C5600,147,5680,294,5720,367.5L5760,441L5760,490L5720,490C5680,490,5600,490,5520,490C5440,490,5360,490,5280,490C5200,490,5120,490,5040,490C4960,490,4880,490,4800,490C4720,490,4640,490,4560,490C4480,490,4400,490,4320,490C4240,490,4160,490,4080,490C4000,490,3920,490,3840,490C3760,490,3680,490,3600,490C3520,490,3440,490,3360,490C3280,490,3200,490,3120,490C3040,490,2960,490,2880,490C2800,490,2720,490,2640,490C2560,490,2480,490,2400,490C2320,490,2240,490,2160,490C2080,490,2000,490,1920,490C1840,490,1760,490,1680,490C1600,490,1520,490,1440,490C1360,490,1280,490,1200,490C1120,490,1040,490,960,490C880,490,800,490,720,490C640,490,560,490,480,490C400,490,320,490,240,490C160,490,80,490,40,490L0,490Z"/></svg>